<svg xmlns="http://www.w3.org/2000/svg" viewBox="0 0 77 77"><defs><style>.a{fill:#000;}</style></defs><title>close</title><path class="a" d="M190.38,89.19l-3.48,3.48a2.28,2.28,0,0,1-3.18.3l-69-69a2.28,2.28,0,0,1,.3-3.18l3.48-3.48a2.28,2.28,0,0,1,3.18-.3l69,69A2.28,2.28,0,0,1,190.38,89.19Z" transform="translate(-114.2 -16.49)"/><path class="a" d="M186.93,17.3l3.46,3.46a2.27,2.27,0,0,1,.29,3.17l-69,69a2.27,2.27,0,0,1-3.17-.29L115,89.22a2.27,2.27,0,0,1-.29-3.17l69-69A2.27,2.27,0,0,1,186.93,17.3Z" transform="translate(-114.2 -16.49)"/></svg>